<?xml version="1.0" standalone="no"?>
<!DOCTYPE svg PUBLIC "-//W3C//DTD SVG 20010904//EN"
 "http://www.w3.org/TR/2001/REC-SVG-20010904/DTD/svg10.dtd">
<svg version="1.0" xmlns="http://www.w3.org/2000/svg"
 width="700.000000pt" height="700.000000pt" viewBox="0 0 700.000000 700.000000"
 preserveAspectRatio="xMidYMid meet">
<metadata>
Created by potrace 1.11, written by Peter Selinger 2001-2013
</metadata>
<g transform="translate(0.000000,700.000000) scale(0.100000,-0.100000)"
fill="#000000" stroke="none">
<path d="M4689 5706 c-2 -2 -29 -6 -59 -10 -202 -22 -418 -131 -571 -288 -180
-184 -270 -403 -283 -683 -6 -114 -17 -176 -48 -255 -34 -89 -121 -212 -207
-293 -73 -68 -183 -153 -221 -170 -8 -4 -33 -18 -55 -32 -44 -27 -200 -106
-255 -128 -19 -8 -66 -27 -103 -42 l-68 -28 -49 55 c-27 31 -69 67 -93 81
-218 128 -496 -3 -541 -255 -6 -30 -11 -38 -29 -38 -147 -3 -409 -96 -567
-203 -211 -143 -378 -348 -473 -582 -22 -52 -52 -150 -47 -150 1 0 -4 -13 -10
-30 -6 -16 -13 -41 -15 -55 -2 -14 -7 -47 -11 -75 -4 -27 -7 -99 -8 -160 -2
-97 3 -140 29 -285 11 -60 63 -207 102 -285 49 -100 148 -230 258 -340 108
-109 132 -129 210 -176 89 -54 135 -76 237 -112 87 -31 126 -42 253 -66 73
-15 487 -5 589 13 17 3 54 8 82 11 28 3 61 8 75 10 13 3 51 10 84 15 33 6 78
15 100 20 52 12 55 12 55 -1 0 -30 94 -119 157 -151 77 -37 79 -38 159 -39
103 -1 179 29 249 99 85 84 108 136 109 252 l1 85 50 24 c28 13 99 50 159 83
l109 59 61 -30 c72 -36 101 -43 179 -41 106 1 188 39 261 121 76 85 109 215
81 324 l-13 50 96 95 c158 157 279 296 390 451 l47 66 85 5 c130 8 216 64 277
180 24 46 27 65 28 143 0 90 -13 131 -67 206 -11 16 -6 31 97 289 45 111 144
502 149 585 1 5 26 18 56 30 117 43 170 90 221 192 80 160 21 361 -133 459
-21 13 -43 24 -50 24 -32 1 -46 27 -53 96 -18 207 -126 435 -279 589 -134 135
-330 239 -519 276 -50 10 -261 21 -268 15z"/>
</g>
</svg>
